<?xml version="1.0" encoding="UTF-8"?>
<svg width="80px" height="80px" viewBox="0 0 80 80" version="1.1" xmlns="http://www.w3.org/2000/svg" xmlns:xlink="http://www.w3.org/1999/xlink">
    <!-- Generator: Sketch 60 (88103) - https://sketch.com -->
    <title>manage_participant_delete3</title>
    <desc>Created with Sketch.</desc>
    <g id="页面-1" stroke="none" stroke-width="1" fill="none" fill-rule="evenodd">
        <g id="管理端-产品图标" transform="translate(-412.000000, -72.000000)">
            <g id="manage_participant_delete3" transform="translate(412.000000, 72.000000)">
                <polygon id="底框" fill="#E3483F" points="-1.25055521e-11 0 80 0 80 80 -1.25055521e-11 80"></polygon>
                <path d="M49.2499786,34.6444215 C49.6999966,34.6444215 50,34.9466477 50,35.4 C50,35.7777634 49.6999966,36.0800155 49.3249859,36.1555527 L48.4999573,36.1555527 L48.4999573,46.7333936 C48.4999573,47.9422211 47.599947,48.9244628 46.4000103,49 L35.7499786,49 C34.4749577,49 33.5000427,48.0177583 33.5000427,46.7333936 L33.5000427,36.1555527 L32.7500214,36.1555527 C32.3000034,36.1555527 32,35.8533264 32,35.4 C32,35.0222107 32.3000034,34.7199845 32.6750141,34.6444215 L49.2499786,34.6444215 Z M47.0000427,36.1555527 L34.9999573,36.1555527 L34.9999573,46.7333936 C34.9999573,47.1111828 35.2999607,47.4134091 35.6749714,47.4888688 L46.2500214,47.4888688 C46.7000137,47.4888688 47.0000427,47.1867459 47.0000427,46.7333936 L47.0000427,36.1555527 Z M39.1249466,38.4222882 C39.4999573,38.4222882 39.7999607,38.7244112 39.874968,39.1022004 L39.874968,43.7111054 C39.874968,44.1644318 39.5749645,44.4666581 39.1249466,44.4666581 C38.7499359,44.4666581 38.450035,44.1644318 38.3750534,43.7866426 L38.3750534,39.1777634 C38.3750534,38.7244112 38.6749543,38.4222882 39.1249466,38.4222882 Z M42.8750278,38.4222882 C43.2499359,38.4222882 43.549965,38.7244112 43.6249466,39.1022004 L43.6249466,43.7111054 C43.6249466,44.1644318 43.3249432,44.4666581 42.8750278,44.4666581 C42.5000427,44.4666581 42.2000137,44.1644318 42.125032,43.7866426 L42.125032,39.1777634 C42.125032,38.7244112 42.4250355,38.4222882 42.8750278,38.4222882 Z M45.5,32 C45.9500179,32 46.2500214,32.3022262 46.2500214,32.7555785 C46.2500214,33.1333678 45.9500179,33.435594 45.5750073,33.511157 L36.5,33.511157 C36.0499821,33.511157 35.7499786,33.2089308 35.7499786,32.7555785 C35.7499786,32.3777893 36.0499821,32.075563 36.4249927,32 L45.5,32 Z" id="lajitong-2" fill="#FFFFFF"></path>
            </g>
        </g>
    </g>
</svg>