<?xml version="1.0" encoding="UTF-8"?>
<svg width="15px" height="15px" viewBox="0 0 15 15" version="1.1" xmlns="http://www.w3.org/2000/svg" xmlns:xlink="http://www.w3.org/1999/xlink">
    <!-- Generator: Sketch 60 (88103) - https://sketch.com -->
    <title>product_search_searchbox</title>
    <desc>Created with Sketch.</desc>
    <g id="页面-1" stroke="none" stroke-width="1" fill="none" fill-rule="evenodd">
        <g id="客户端-产品卡片图标" transform="translate(-102.000000, -378.000000)" fill="#B3B3B3" stroke="#B3B3B3" stroke-width="0.8">
            <g id="product_search_searchbox" transform="translate(103.000000, 379.000000)">
                <path d="M9.917568,11.081628 C7.497632,12.93262 4.021376,12.751564 1.807872,10.53806 C-0.602624,8.127196 -0.602624,4.218748 1.807872,1.807884 C4.218752,-0.602628 8.127184,-0.602628 10.538064,1.807884 C12.751568,4.021372 12.932624,7.497196 11.081632,9.917564 L12.865808,11.702188 C13.169248,12.026444 13.160816,12.532812 12.846816,12.846812 C12.532816,13.160812 12.026432,13.16926 11.702192,12.86582 L9.917568,11.081628 Z M2.971936,9.373996 C4.739808,11.14182 7.606192,11.14182 9.374,9.373996 C11.141808,7.606188 11.141808,4.73982 9.374,2.971932 C7.606192,1.204124 4.739808,1.204124 2.971936,2.971932 C1.204128,4.73982 1.204128,7.606188 2.971936,9.373996 Z" id="Fill-1"></path>
            </g>
        </g>
    </g>
</svg>